<?xml version="1.0" encoding="iso-8859-1"?>
<!-- Generator: Adobe Illustrator 18.0.0, SVG Export Plug-In . SVG Version: 6.00 Build 0)  -->
<!DOCTYPE svg PUBLIC "-//W3C//DTD SVG 1.1//EN" "http://www.w3.org/Graphics/SVG/1.1/DTD/svg11.dtd">
<svg version="1.1" id="Capa_1" xmlns="http://www.w3.org/2000/svg" xmlns:xlink="http://www.w3.org/1999/xlink" x="0px" y="0px"
	 viewBox="0 0 132.528 132.528" style="enable-background:new 0 0 132.528 132.528;" xml:space="preserve">
<g>
	<g>
		<g>
			<path style="fill:#F0505D;" d="M58.434,11.148c0-1.537,1.248-2.79,2.785-2.79h12.877c1.537,0,2.79,1.253,2.79,2.79v4.567v0.006
				c1.911,0.429,3.771,0.991,5.57,1.676v-0.005v-6.244c0-4.611-3.748-8.359-8.36-8.359H61.219c-4.605,0-8.36,3.748-8.36,8.359v6.244
				v0.005c1.8-0.685,3.665-1.247,5.575-1.682V11.148z"/>
		</g>
		<g>
			<path style="fill:#F0505D;" d="M33.232,87.437c0,0.356,0.144,0.685,0.378,0.919c0.234,0.233,0.558,0.378,0.914,0.378
				c0.712,0,1.292-0.579,1.292-1.297v-8.383h70.066v-2.139c0-4.395-3.564-7.959-7.964-7.959H37.404c-4.4,0-7.966,3.564-7.966,7.959
				v2.139h3.794V87.437z"/>
		</g>
		<g>
			<path style="fill:#20B0A8;" d="M35.816,79.054v8.383c0,0.718-0.58,1.297-1.292,1.297c-0.357,0-0.68-0.145-0.914-0.378
				c-0.233-0.234-0.378-0.563-0.378-0.919v-8.383h-3.794v25.894c0,4.394,3.565,7.96,7.966,7.96h60.515
				c4.399,0,7.964-3.565,7.964-7.96V79.054H35.816z"/>
		</g>
		<g>
			<rect x="25.863" y="118.092" style="fill:#20B0A8;" width="83.59" height="14.436"/>
		</g>
		<g>
			<path style="fill:#EED915;" d="M97.21,26.938c-4.149-4.15-9.162-7.431-14.754-9.542c-1.799-0.685-3.659-1.247-5.57-1.676
				c-2.968-0.674-6.059-1.025-9.229-1.025c-3.17,0-6.255,0.352-9.224,1.02c-1.91,0.435-3.775,0.997-5.575,1.682
				c-15.778,5.972-26.996,21.227-26.996,39.095v48.456v13.144h83.59v-13.144V56.491C109.453,44.95,104.774,34.501,97.21,26.938z
				 M97.918,112.907H37.404c-4.4,0-7.966-3.565-7.966-7.96V79.054v-2.139c0-4.395,3.565-7.959,7.966-7.959h60.515
				c4.399,0,7.964,3.564,7.964,7.959v2.139v25.894C105.882,109.342,102.318,112.907,97.918,112.907z"/>
		</g>
	</g>
	<g>
		<g>
			<path style="fill:#231F20;" d="M107.223,130.857H23.632c-0.308,0-0.557-0.25-0.557-0.558V54.261
				c0-23.353,18.999-42.352,42.353-42.352c23.352,0,42.351,18.999,42.351,42.352v76.038
				C107.78,130.607,107.531,130.857,107.223,130.857z M24.19,129.742h82.476V54.261c0-22.738-18.499-41.237-41.237-41.237
				c-22.739,0-41.238,18.499-41.238,41.237V129.742z"/>
		</g>
		<g>
			<path style="fill:#231F20;" d="M107.223,116.422H23.632c-0.308,0-0.557-0.249-0.557-0.558c0-0.308,0.249-0.557,0.557-0.557
				h83.591c0.308,0,0.557,0.249,0.557,0.557C107.78,116.173,107.531,116.422,107.223,116.422z"/>
		</g>
		<g>
			<g>
				<path style="fill:#231F20;" d="M56.203,14.093c-0.309,0-0.558-0.249-0.558-0.557V8.917c0-1.844,1.5-3.344,3.344-3.344h12.879
					c1.843,0,3.344,1.5,3.344,3.344v4.57c0,0.309-0.249,0.558-0.558,0.558c-0.308,0-0.557-0.249-0.557-0.558v-4.57
					c0-1.229-1-2.23-2.23-2.23H58.989c-1.229,0-2.229,1.001-2.229,2.23v4.619C56.759,13.844,56.51,14.093,56.203,14.093z"/>
			</g>
			<g>
				<path style="fill:#231F20;" d="M80.226,15.72c-0.308,0-0.557-0.25-0.557-0.558V8.917c0-4.303-3.5-7.803-7.802-7.803H58.989
					c-4.303,0-7.803,3.5-7.803,7.803v6.245c0,0.308-0.249,0.558-0.557,0.558c-0.308,0-0.558-0.25-0.558-0.558V8.917
					C50.072,4,54.072,0,58.989,0h12.879c4.916,0,8.916,4,8.916,8.917v6.245C80.784,15.47,80.535,15.72,80.226,15.72z"/>
			</g>
		</g>
		<g>
			<g>
				<path style="fill:#231F20;" d="M95.687,111.234H35.168c-4.697,0-8.518-3.821-8.518-8.518V74.685c0-4.696,3.82-8.518,8.518-8.518
					h60.519c4.697,0,8.519,3.821,8.519,8.518v28.032C104.206,107.413,100.384,111.234,95.687,111.234z M35.168,67.281
					c-4.082,0-7.404,3.321-7.404,7.403v28.032c0,4.082,3.322,7.403,7.404,7.403h60.519c4.083,0,7.404-3.321,7.404-7.403V74.685
					c0-4.082-3.321-7.403-7.404-7.403H35.168z"/>
			</g>
			<g>
				<path style="fill:#231F20;" d="M103.649,77.382H27.208c-0.308,0-0.557-0.249-0.557-0.557c0-0.308,0.249-0.557,0.557-0.557
					h76.441c0.308,0,0.557,0.249,0.557,0.557C104.206,77.133,103.957,77.382,103.649,77.382z"/>
			</g>
			<g>
				<path style="fill:#231F20;" d="M32.292,87.061c-1.02,0-1.851-0.831-1.851-1.852v-8.384c0-0.308,0.249-0.557,0.557-0.557
					c0.309,0,0.558,0.249,0.558,0.557v8.384c0,0.406,0.331,0.737,0.737,0.737c0.406,0,0.736-0.331,0.736-0.737v-8.384
					c0-0.308,0.249-0.557,0.558-0.557c0.308,0,0.557,0.249,0.557,0.557v8.384C34.143,86.229,33.312,87.061,32.292,87.061z"/>
			</g>
		</g>
	</g>
</g>
<g>
</g>
<g>
</g>
<g>
</g>
<g>
</g>
<g>
</g>
<g>
</g>
<g>
</g>
<g>
</g>
<g>
</g>
<g>
</g>
<g>
</g>
<g>
</g>
<g>
</g>
<g>
</g>
<g>
</g>
</svg>
