<?xml version="1.0" encoding="iso-8859-1"?>
<!-- Generator: Adobe Illustrator 18.0.0, SVG Export Plug-In . SVG Version: 6.00 Build 0)  -->
<!DOCTYPE svg PUBLIC "-//W3C//DTD SVG 1.1//EN" "http://www.w3.org/Graphics/SVG/1.1/DTD/svg11.dtd">
<svg version="1.1" id="Capa_1" xmlns="http://www.w3.org/2000/svg" xmlns:xlink="http://www.w3.org/1999/xlink" x="0px" y="0px"
	 viewBox="0 0 456.714 456.714" style="enable-background:new 0 0 456.714 456.714;" xml:space="preserve">
<g>
	<path style="fill:#4479FA;" d="M423.376,87.418L32.611,226.64c-4.812,1.714-8.736,4.995-11.305,9.139
		c2.184,6.081,6.978,11.04,13.305,13.293l402.103,143.263c-29.103-44.919-46.523-101.928-46.523-163.979
		C390.191,176.478,402.375,128.129,423.376,87.418z"/>
	<path style="fill:#2C3D8E;" d="M436.714,64.379c-29.103,44.919-46.523,101.928-46.523,163.978
		c0,62.051,17.419,119.06,46.523,163.979L34.611,249.073C25.85,245.952,20,237.657,20,228.357s5.85-17.595,14.611-20.716
		L436.714,64.379 M436.71,44.378c-2.243,0-4.51,0.378-6.708,1.161L27.899,188.8C11.212,194.745,0,210.642,0,228.357
		s11.212,33.611,27.899,39.556l402.103,143.263c2.198,0.783,4.465,1.161,6.708,1.161c5.997,0,11.823-2.703,15.692-7.596
		c5.316-6.723,5.758-16.087,1.097-23.28c-27.927-43.104-43.308-97.478-43.308-153.104c0-55.626,15.38-109.999,43.308-153.103
		c4.661-7.193,4.22-16.557-1.097-23.28C448.533,47.08,442.707,44.378,436.71,44.378L436.71,44.378z"/>
</g>
<g>
</g>
<g>
</g>
<g>
</g>
<g>
</g>
<g>
</g>
<g>
</g>
<g>
</g>
<g>
</g>
<g>
</g>
<g>
</g>
<g>
</g>
<g>
</g>
<g>
</g>
<g>
</g>
<g>
</g>
</svg>
