<?xml version="1.0" encoding="iso-8859-1"?>
<!-- Generator: Adobe Illustrator 18.0.0, SVG Export Plug-In . SVG Version: 6.00 Build 0)  -->
<!DOCTYPE svg PUBLIC "-//W3C//DTD SVG 1.1//EN" "http://www.w3.org/Graphics/SVG/1.1/DTD/svg11.dtd">
<svg version="1.1" id="Capa_1" xmlns="http://www.w3.org/2000/svg" xmlns:xlink="http://www.w3.org/1999/xlink" x="0px" y="0px"
	 viewBox="0 0 169.148 169.148" style="enable-background:new 0 0 169.148 169.148;" xml:space="preserve">
<g>
	
		<rect x="24.851" y="157.078" transform="matrix(0.8585 0.5128 -0.5128 0.8585 86.9801 3.862)" style="fill:#C99352;" width="23.28" height="4.956"/>
	<g>
		<path style="fill:#B8874A;" d="M45.817,166.644c-0.848-0.03-1.72-0.121-2.59-0.18l-1.531-0.914
			c1.462-0.007,2.991,0.169,4.359,0.695L45.817,166.644z"/>
		<path style="fill:#B8874A;" d="M27.118,152.549c0.272,0.967,0.565,1.928,0.951,2.866c0.412,1,1.17,2.031,1.834,3.092l-1.546-0.923
			c-0.721-1.134-1.459-2.25-1.868-3.352c-0.047-0.129-0.093-0.266-0.141-0.396L27.118,152.549z"/>
		<path style="fill:#B8874A;" d="M46.697,165.169l-0.141,0.234c-1.4-0.61-2.869-0.942-4.458-1.044
			c-0.762-0.048-1.446,0.036-2.104,0.175l-0.751-0.448c0.548-0.087,1.079-0.144,1.542-0.191
			C42.864,163.686,44.891,164.204,46.697,165.169z"/>
		<path style="fill:#B8874A;" d="M36.37,156.598l1.271,0.759c0.159,0.309,0.332,0.61,0.543,0.894
			c0.997,1.332,2.722,1.947,4.41,2.064l0.987,0.59C40.587,161.597,37.719,159.373,36.37,156.598z"/>
		<path style="fill:#B8874A;" d="M46.826,163.35c0.108,0.012,0.108,0.163-0.001,0.169c-6.181,0.366-12.996-3.656-14.929-9.594
			l1.578,0.942c0.738,1.628,1.494,3.108,3.363,4.376C39.695,161.184,43.351,162.989,46.826,163.35z"/>
		<path style="fill:#B8874A;" d="M28.414,151.846l1.006,0.602c0.626,2.466,1.356,4.911,3.203,6.686
			c0.541,0.52,0.941,1.122,1.27,1.755l-1.688-1.008c-0.669-0.883-1.375-1.769-1.955-2.841
			C29.399,155.471,28.781,153.666,28.414,151.846z"/>
	</g>
	
		<rect x="64.245" y="57.979" transform="matrix(-0.8585 -0.5127 0.5127 -0.8585 74.9149 230.6918)" style="fill:#C99352;" width="10.068" height="94.067"/>
	<g>
		<path style="fill:#B8874A;" d="M64.589,108.004c0.143-2.871,1.594-5.906,2.272-8.76l1.791-2.997
			c-0.722,7.406-4.315,15.154-1.482,22.114l-0.532,0.891C64.808,115.907,64.399,111.815,64.589,108.004z"/>
		<path style="fill:#B8874A;" d="M76.248,92.953c-0.934,3.017-2.582,5.738-4.076,8.496c-1.724,3.182-1.331,6.376-0.618,9.57
			l-1.067,1.787c-1.076-3.465-1.511-7.418-0.142-10.56c1.71-3.924,3.908-7.41,5.203-11.553c0.828-2.65,1.104-5.301,1.177-7.967
			l1.347-2.256C78.288,84.674,77.498,88.916,76.248,92.953z"/>
		<path style="fill:#B8874A;" d="M79.132,98.332l-0.786,1.316c-1.941,0.678-3.437,1.925-3.788,4.719
			c-0.073,0.584-0.08,1.157-0.063,1.729l-0.992,1.66c-0.209-2.098,0.022-4.286,0.697-6.048
			C74.968,99.708,77.006,98.731,79.132,98.332z"/>
		<path style="fill:#B8874A;" d="M57.786,120.675c-1.767,1.687-3.793,3.112-5.958,3.738l0.982-1.645
			c0.408-0.14,0.824-0.314,1.261-0.559c2.08-1.167,3.884-2.656,4.182-5.184c0.104-0.88-0.171-1.652-0.615-2.342l0.694-1.162
			C59.837,115.585,59.829,118.726,57.786,120.675z"/>
		<path style="fill:#B8874A;" d="M55.589,137.752c0.158-1.732,0.668-3.461,1.276-4.782c0.583-1.269,1.866-2.357,3.272-2.834
			l-1.481,2.481c-0.339,0.407-0.646,0.898-0.913,1.528L55.589,137.752z"/>
		<path style="fill:#B8874A;" d="M55.587,125.904c5.254-2.102,6.121-9.785,4.3-14.982l0.852-1.427
			c2.386,4.742,1.027,10.805-1.98,15.139c-1.979,2.853-5.689,3.99-9.403,3.921l0.951-1.591
			C52.02,126.934,53.761,126.633,55.587,125.904z"/>
		<path style="fill:#B8874A;" d="M42.219,140.503l0.802-1.343c0.062,0.138,0.132,0.274,0.179,0.414
			c0.499,1.475,0.502,3.161-0.091,4.591l-0.973-0.581C42.417,142.606,42.484,141.595,42.219,140.503z"/>
		<path style="fill:#B8874A;" d="M54.784,129.906c1.45-2.418,4.967-3.737,7.292-5.055c0.533-0.302,1.055-0.48,1.572-0.596
			l-0.795,1.331c-4.197,1.265-8.02,5.671-9.222,9.096c-0.868,2.474-0.676,4.652-0.318,6.877l-1.375,2.303
			C49.958,139.549,52.587,133.572,54.784,129.906z"/>
		<path style="fill:#B8874A;" d="M48.779,138.607c0.322-2.534-0.071-4.293-1.98-5.772l0.536-0.896
			c1.051,0.713,1.938,1.612,2.53,2.875c0.842,1.796-0.028,4.412-0.391,6.188c-0.412,2.02-0.984,4.012-1.718,5.939l-0.855-0.511
			C47.727,143.883,48.435,141.318,48.779,138.607z"/>
		<path style="fill:#B8874A;" d="M45.969,139.192c-0.267-0.995-0.724-1.933-1.298-2.795l0.352-0.589
			c0.373,0.706,0.682,1.385,0.919,1.916c1.222,2.739,1.251,5.621-0.127,8.059l-0.997-0.596
			C45.755,143.318,46.59,141.501,45.969,139.192z"/>
		<path style="fill:#B8874A;" d="M81.108,86.637c0.561-4.861,3.522-9.929,5.544-14.302c0.19-0.413,0.9-0.108,0.736,0.315
			c-1.629,4.195-3.59,8.3-4.823,12.634c-0.701,2.465-0.412,4.827,0.073,7.18l-0.989,1.656
			C81.095,91.637,80.825,89.088,81.108,86.637z"/>
		<path style="fill:#B8874A;" d="M84.652,89.089c-0.428-5.804,2.215-12.28,5.684-16.482c0.153-0.185,0.432,0.06,0.32,0.255
			c-1.607,2.815-2.862,5.666-3.748,8.787c-0.458,1.612-0.609,3.206-0.68,4.801L84.652,89.089z"/>
		<path style="fill:#B8874A;" d="M83.576,71.257l0.512-0.857c1.095,1.995,1.147,4.488-0.199,6.463
			c-0.709,1.041-2.63,0.752-3.647,0.656c-0.122-0.012-0.248-0.042-0.372-0.058l0.637-1.066c0.666,0.092,1.34,0.128,2.014,0.126
			c1.378-0.005,1.482-2.64,1.458-3.531C83.963,72.383,83.806,71.804,83.576,71.257z"/>
	</g>
	
		<rect x="85.181" y="51.76" transform="matrix(-0.8585 -0.5128 0.5128 -0.8585 140.4379 168.0118)" style="fill:#6B8D9D;" width="16.429" height="25.746"/>
	<path style="fill:#618190;" d="M87.335,66.336c-0.876,7.186,2.767,11.816,9.793,8.069l-3.279,5.491l-14.105-8.424l13.202-22.104
		l1.55,0.926l-0.2,4.389C94.294,54.684,88.334,58.133,87.335,66.336z"/>
	<path style="fill:#618190;" d="M130.252,2.924c8.767,5.236,18.684,28.458,15.114,34.436c-3.57,5.977-21.895,36.66-21.895,36.66
		L97.172,58.311L70.872,42.604c0,0,18.325-30.683,21.895-36.66C96.338-0.033,121.485-2.312,130.252,2.924z"/>
	<path style="fill:#526D7B;" d="M110.015,0.201c-12.861,10.571-33.686,33.769-7.607,49.344
		c25.172,15.035,35.529-17.249,38.87-32.189c3.867,7.957,6.082,16.667,4.089,20.004c-3.57,5.977-21.895,36.66-21.895,36.66
		L97.172,58.311L70.872,42.604c0,0,18.325-30.683,21.895-36.66C94.587,2.898,102.012,0.821,110.015,0.201z"/>
	<path style="fill:#6B8D9D;" d="M40.84,142.811l4.322,2.581l4.322,2.581c0,0,5.246,9.435-1.766,21.175l-3.741-2.235
		c0,0,5.706-11.994-1.82-16.489c-7.525-4.494-15.381,6.216-15.381,6.216l-3.741-2.234C30.047,142.665,40.84,142.811,40.84,142.811z"
		/>
	<g>
		<path style="fill:#618190;" d="M40.84,142.811l0.768,0.459c0,0-9.369,0.705-16.38,12.445l-2.193-1.311
			C30.047,142.665,40.84,142.811,40.84,142.811z"/>
		<path style="fill:#618190;" d="M48.716,147.514l0.768,0.459c0,0,5.246,9.435-1.766,21.175l-2.193-1.311
			C52.537,156.098,48.716,147.514,48.716,147.514z"/>
	</g>
</g>
<g>
</g>
<g>
</g>
<g>
</g>
<g>
</g>
<g>
</g>
<g>
</g>
<g>
</g>
<g>
</g>
<g>
</g>
<g>
</g>
<g>
</g>
<g>
</g>
<g>
</g>
<g>
</g>
<g>
</g>
</svg>
