<?xml version="1.0" encoding="iso-8859-1"?>
<!-- Generator: Adobe Illustrator 19.0.0, SVG Export Plug-In . SVG Version: 6.00 Build 0)  -->
<svg version="1.1" id="Layer_1" xmlns="http://www.w3.org/2000/svg" xmlns:xlink="http://www.w3.org/1999/xlink" x="0px" y="0px"
	 viewBox="0 0 511.661 511.661" style="enable-background:new 0 0 511.661 511.661;" xml:space="preserve">
<g>
	<path style="fill:#FDD835;" d="M171.349,445.261c-4-8.4-8.4-18.4-11.2-29.2l4-4.4l20.8,19.6L171.349,445.261L171.349,445.261z"/>
	<path style="fill:#FDD835;" d="M156.149,404.061c-1.2-6.8-2.4-14-3.6-21.6l10.8-10.8l20,20l-20,19.6L156.149,404.061z"/>
	<path style="fill:#FDD835;" d="M148.949,346.061c-0.4-9.6-0.8-19.2-0.8-29.2l15.2,15.2L148.949,346.061z"/>
	<path style="fill:#FDD835;" d="M322.549,97.661l-16.4,16.4l-19.6-20l19.6-19.6l12.8,12.8
		C320.149,90.861,321.349,94.461,322.549,97.661z"/>
	<path style="fill:#FDD835;" d="M198.149,63.661c16.4-36.4,36-58,57.2-58c0.8,0,1.6,2,2.4,2l0,0l0.4-2l-10.8,9.2l0,0l-20,19.6
		l-20,20L198.149,63.661z"/>
	<path style="fill:#FDD835;" d="M151.349,278.061c0-4-0.8-8-0.4-12l12.8-13.6l19.6,19.6l-18.8,19.6L151.349,278.061L151.349,278.061
		z"/>
	<path style="fill:#FDD835;" d="M306.149,74.461l-20-20l14-14c4,7.6,8,17.2,12,27.6L306.149,74.461z"/>
	<path style="fill:#FDD835;" d="M206.949,450.861l-16,16c-6.8-5.6-13.6-12.4-18-21.6l14-14L206.949,450.861z"/>
	<path style="fill:#FDD835;" d="M208.549,291.661l18.4-18.8l-19.6-19.6l-8.4,8.8l-11.6,10.8l20,18c0,0.4,0,0.4,0.4,0.8l0,0l0.4,0.8
		L208.549,291.661l0.4,0.8C208.549,292.061,208.549,291.661,208.549,291.661z"/>
	<path style="fill:#FDD835;" d="M223.349,436.861l-15.2,14l-20.4-19.6l19.6-20l16.8,15.6
		C223.349,430.461,223.349,433.661,223.349,436.861L223.349,436.861z"/>
	<path style="fill:#FDD835;" d="M187.749,272.461l19.6,18.8l0,0c0,0.4-0.4,1.2-0.4,1.6l-19.6,19.2l-19.6-20L187.749,272.461z"/>
	<path style="fill:#FDD835;" d="M223.349,436.861l-16.4,14l8,6.8l0,0l10.4,11.6c1.2-8.8,3.2-19.6,5.2-31.6v-0.4
		c0.4-3.6,1.2-7.6,1.6-11.6l0,0l-4.8,5.2L223.349,436.861L223.349,436.861"/>
	<path style="fill:#FDD835;" d="M152.549,382.461c-1.2-8-2-16-2.4-24.4l13.6,13.6L152.549,382.461z"/>
	<path style="fill:#FDD835;" d="M156.149,404.061l7.2,7.2l-4.4,4.4C157.749,412.061,156.949,408.061,156.149,404.061z"/>
	<path style="fill:#FDD835;" d="M213.749,457.661l-6.8-6.8l-16,16c3.6,2.8,6.8,5.2,10,6.8c2.8,1.6,3.6,5.2,6,6.4
		c3.6,1.6,16,2,17.2,2.8l1.2-4v-6.8c0-0.8,0.4-2,0.4-2.8L213.749,457.661z"/>
	<path style="fill:#FDD835;" d="M282.549,18.861c4,3.6,7.2,7.2,9.6,10l0.4,0.4c2,2.4,3.6,5.2,5.6,8c0,0,0.4,0.4,0.4,0.8
		c0.4,1.2,1.2,2,1.6,3.2l-14,14l-19.6-20L282.549,18.861z"/>
	<path style="fill:#FDD835;" d="M187.349,391.261l19.6-19.6l18.4,16.8c0,2,2,4,2,5.6l0,0l-18.8,16.8L187.349,391.261z"/>
	<path style="fill:#FDD835;" d="M172.949,139.661h-0.4c1.2-4.8,2.4-9.6,3.6-14l11.2-11.2l20,20l-20,19.6L172.949,139.661z"/>
	<path style="fill:#FDD835;" d="M167.349,173.661l-2.4,2.4c-0.8,3.6-1.2,7.6-2,11.2c-1.2,6.4-2,12.4-2.8,18.8l7.2,7.2l6.4-6.4
		l13.2-13.2L167.349,173.661z"/>
</g>
<path style="fill:#689F38;" d="M59.749,148.061L59.749,148.061c0,0,40.8,4.4,70.8,15.2l0,0c12.8,6,23.6,14.8,30,27.2
	c-2.8,16-5.6,32-7.6,48c-1.2,10.4-2.4,20.8-3.2,30.8c-1.2,14.4-2,28.8-2.4,42.4l0,0l0,0c0,4.8,0,9.2,0,14c0,28.4,2,52,6.4,71.6
	c8.4,41.2,24.8,65.2,45.6,77.6c-2,1.6-4.4,4.4-6.8,4.4l0,0c-16-4-30.4-13.2-43.2-24c0-0.4-0.4-0.8-0.4-0.8c-4-3.6-7.6-7.6-10.8-11.2
	l0,0c-9.6-11.2-17.2-24.8-22.4-41.2c0-0.4-0.4-0.8-0.4-1.6c-1.6-5.2-2.8-10.8-4.4-16.8l1.2-0.4c-10.4-43.2-12.4-88.4-16.4-129.2l0,0
	c0-12.4-3.2-29.2-8.4-46C81.749,184.061,72.549,163.661,59.749,148.061z"/>
<g>
	<path style="fill:#FDD835;" d="M336.149,144.461l-10.4-10.4l6-6C333.349,133.661,334.949,139.261,336.149,144.461z"/>
	<path style="fill:#FDD835;" d="M206.949,94.461l-20,20l-11.2,11.2c0-0.4,0-0.4,0.4-0.8v-0.4c4.4-16,9.6-31.2,15.2-44.8l1.6,0.8
		L206.949,94.461z"/>
	<path style="fill:#FDD835;" d="M306.149,74.461l6-6c2.4,6,4.8,12.4,6.8,19.2L306.149,74.461z"/>
</g>
<path style="fill:#689F38;" d="M267.349,483.661h0.4c0,0,0,0,0.4,0c8.4-1.2,16.4-2.8,24.4-5.2h0.4c10.4-2.4,20.4-5.2,28.8-8.4
	c-1.2,19.2-17.2,38-66.4,38c-36.4,0-66-12.4-66-28h0.4l4.8-0.4c9.2,2.8,19.2,4.4,29.2,5.6c-0.4,3.6,0,0,0,0
	S242.949,488.061,267.349,483.661z"/>
<g>
	<path style="fill:#FDD835;" d="M260.949,317.661c-3.2,9.6-6.4,19.6-9.6,30v0.4c-2.4,7.2-4.4,14.4-6.4,21.6h-0.4l-17.6-17.6l20-19.6
		l0,0L260.949,317.661z"/>
	<path style="fill:#FDD835;" d="M167.349,213.261l17.6,17.6c0.4,1.2,0.8,2.4,1.6,3.6l-18.8,18.8l-11.6-11.6c0.4-6.4,1.2-12.4,2-18.8
		L167.349,213.261z"/>
	<path style="fill:#FDD835;" d="M246.549,292.461l20-20l9.6,9.6c-4.4,8.4-8.4,17.6-12,27.6L246.549,292.461z"/>
	<polygon style="fill:#FDD835;" points="206.949,292.461 206.549,292.861 187.349,312.061 206.949,332.061 214.549,324.461 
		226.949,312.061 	"/>
	<polygon style="fill:#FDD835;" points="187.349,193.261 173.749,206.861 167.349,213.261 184.949,230.461 187.349,232.861 
		206.949,213.261 	"/>
	<polygon style="fill:#FDD835;" points="218.149,343.261 206.949,332.061 187.349,351.661 206.949,371.661 220.549,358.061 
		226.949,351.661 	"/>
	<path style="fill:#FDD835;" d="M340.549,159.261c4,15.6,6.8,26,6.8,26s-1.2,2-4,5.6l-17.6-17.6l14-14H340.549z"/>
	<path style="fill:#FDD835;" d="M336.149,144.461c1.6,5.2,2.8,10.4,4,14.8h-0.4l-14,14l-19.6-19.6l19.6-20L336.149,144.461z"/>
	<path style="fill:#FDD835;" d="M343.349,191.261c-2.8,3.6-6.4,9.2-11.6,16.4l-6,6l-19.6-20l19.6-20L343.349,191.261z"/>
	<path style="fill:#FDD835;" d="M322.549,97.661c3.2,10,6.4,20.4,9.2,30.4l-6,6l-19.6-19.6L322.549,97.661z"/>
	
		<rect x="291.83" y="120.108" transform="matrix(0.707 -0.7072 0.7072 0.707 -5.2356 255.5777)" style="fill:#FDD835;" width="28" height="28"/>
	
		<rect x="291.829" y="159.71" transform="matrix(0.707 -0.7072 0.7072 0.707 -33.2432 267.1802)" style="fill:#FDD835;" width="28" height="28"/>
	
		<rect x="291.832" y="199.313" transform="matrix(0.707 -0.7072 0.7072 0.707 -61.2498 278.7857)" style="fill:#FDD835;" width="28" height="28"/>
	<polygon style="fill:#FDD835;" points="306.149,74.461 286.149,94.461 266.549,74.461 286.149,54.861 	"/>
	
		<rect x="272.331" y="100.307" transform="matrix(0.7071 -0.7071 0.7071 0.7071 3.0371 235.9459)" style="fill:#FDD835;" width="28" height="28"/>
	
		<rect x="272.346" y="139.945" transform="matrix(0.7072 -0.707 0.707 0.7072 -24.9999 247.5222)" style="fill:#FDD835;" width="28" height="28"/>
	
		<rect x="272.336" y="179.505" transform="matrix(0.7071 -0.7071 0.7071 0.7071 -52.9624 259.1464)" style="fill:#FDD835;" width="28" height="28"/>
	
		<rect x="272.335" y="219.143" transform="matrix(0.7071 -0.7071 0.7071 0.7071 -80.9915 270.7554)" style="fill:#FDD835;" width="28" height="28"/>
	<path style="fill:#FDD835;" d="M266.549,272.461l19.6-19.6l4.8,4.8c-5.6,6.4-10.4,14.8-15.2,24.4L266.549,272.461z"/>
	
		<rect x="252.249" y="80.547" transform="matrix(0.7071 -0.7071 0.7071 0.7071 11.1278 215.9584)" style="fill:#FDD835;" width="28" height="28"/>
	
		<rect x="252.248" y="120.146" transform="matrix(0.7071 -0.7071 0.7071 0.7071 -16.8731 227.5558)" style="fill:#FDD835;" width="28" height="28"/>
	
		<rect x="252.247" y="159.705" transform="matrix(0.7071 -0.7071 0.7071 0.7071 -44.8458 239.1415)" style="fill:#FDD835;" width="28" height="28"/>
	
		<rect x="252.249" y="199.344" transform="matrix(0.7071 -0.7071 0.7071 0.7071 -72.8739 250.7535)" style="fill:#FDD835;" width="28" height="28"/>
	<polygon style="fill:#FDD835;" points="286.149,252.861 266.549,272.461 246.549,252.861 266.549,232.861 	"/>
	<polygon style="fill:#FDD835;" points="266.549,34.861 286.149,54.861 266.549,74.461 246.549,54.861 	"/>
	<polygon style="fill:#FDD835;" points="266.549,34.861 246.549,54.861 226.949,34.861 246.549,15.261 	"/>
	
		<rect x="232.733" y="60.707" transform="matrix(0.7071 -0.7071 0.7071 0.7071 19.4407 196.3474)" style="fill:#FDD835;" width="28" height="28"/>
	
		<rect x="232.732" y="100.346" transform="matrix(0.7071 -0.7071 0.7071 0.7071 -8.5886 207.9566)" style="fill:#FDD835;" width="28" height="28"/>
	
		<rect x="232.751" y="139.948" transform="matrix(0.7072 -0.707 0.707 0.7072 -36.595 219.5291)" style="fill:#FDD835;" width="28" height="28"/>
	
		<rect x="232.729" y="179.543" transform="matrix(0.7071 -0.7071 0.7071 0.7071 -64.5905 231.1515)" style="fill:#FDD835;" width="28" height="28"/>
	<polygon style="fill:#FDD835;" points="266.549,272.461 246.549,292.461 226.949,272.461 246.549,252.861 	"/>
	<polygon style="fill:#FDD835;" points="266.549,232.861 246.549,252.861 226.949,232.861 246.549,213.261 	"/>
	<path style="fill:#FDD835;" d="M263.749,309.661c-1.2,2.8-2,5.2-2.8,8l-14.4,14.4l0,0l-19.6-20l19.6-19.6L263.749,309.661z"/>
	<path style="fill:#FDD835;" d="M258.149,4.061c9.6,2.4,18.4,8.4,24.8,14.4l-16,16.4l-19.6-19.6l0,0L258.149,4.061z"/>
	
		<rect x="212.663" y="40.922" transform="matrix(0.7072 -0.707 0.707 0.7072 27.5356 176.3332)" style="fill:#FDD835;" width="28" height="28"/>
	
		<rect x="212.65" y="80.506" transform="matrix(0.7071 -0.7071 0.7071 0.7071 -0.4413 187.9457)" style="fill:#FDD835;" width="28" height="28"/>
	
		<rect x="212.649" y="120.105" transform="matrix(0.7071 -0.7071 0.7071 0.7071 -28.4423 199.5432)" style="fill:#FDD835;" width="28" height="28"/>
	
		<rect x="212.648" y="159.703" transform="matrix(0.7071 -0.7071 0.7071 0.7071 -56.4432 211.1405)" style="fill:#FDD835;" width="28" height="28"/>
	
		<rect x="212.647" y="199.302" transform="matrix(0.7071 -0.7071 0.7071 0.7071 -84.4442 222.738)" style="fill:#FDD835;" width="28" height="28"/>
	<polygon style="fill:#FDD835;" points="246.549,252.861 226.949,272.461 206.949,252.861 226.949,232.861 	"/>
	<polygon style="fill:#FDD835;" points="246.549,292.461 226.949,312.061 206.949,292.461 226.949,272.461 	"/>
	<path style="fill:#FDD835;" d="M226.949,74.461l-19.6,19.6l-14-14l-1.6-0.8c2-5.6,4.4-10.8,6.8-15.6l9.2-9.2L226.949,74.461z"/>
	
		<rect x="193.113" y="100.293" transform="matrix(0.707 -0.7072 0.7072 0.707 -20.1464 179.9585)" style="fill:#FDD835;" width="28" height="28"/>
	
		<rect x="193.132" y="139.943" transform="matrix(0.7071 -0.7071 0.7071 0.7071 -48.1868 191.5531)" style="fill:#FDD835;" width="28" height="28"/>
	
		<rect x="193.142" y="179.499" transform="matrix(0.707 -0.7072 0.7072 0.707 -76.1524 203.1863)" style="fill:#FDD835;" width="28" height="28"/>
	
		<rect x="193.137" y="219.102" transform="matrix(0.707 -0.7072 0.7072 0.707 -104.1613 214.786)" style="fill:#FDD835;" width="28" height="28"/>
</g>
<path style="fill:#689F38;" d="M368.149,180.461c-1.2,0.8-3.2,1.6-4.4,2.4c0,0-0.4,0-0.4,0.4c-1.2,0.8-2,1.6-3.2,2.4
	c-14.8,10.8-29.2,25.2-41.2,38.8l0,0c-2,2.8-4.4,6-6.8,8.8c-22.8,29.2-40,60-54.4,96.4c0,0.4,0,0.4-0.4,0.8c-0.8,2-1.6,4-2,6
	c0,0.4-0.4,0.8-0.4,1.2c-11.6,36-23.2,112-26.8,136.8h-0.4c-0.4,3.6-0.8,10-0.8,10l0,0c0,0,0,0.4,0,0.8l0,0v0.4l0,0v0.4
	c0,0,0.4,0,1.6-0.4c12.8,0.8,26,0.4,38.8-1.6h0.4c0,0,0,0,0.4,0c8-1.6,16.4-3.2,24.4-5.2h0.4c9.6-2.8,18.8-6,27.6-10h0.8l0,0
	c11.6-4,22-11.2,32-18.4l0,0c34.8-32,48.4-68.4,49.2-71.2c0,0,0,0,0-0.4l18.4-130.4c0,0,0.4,0,0.4-0.4c1.2-11.6,5.6-23.2,5.6-34l0,0
	c4-15.6,6.4-30,11.6-42.4l4.4-16.4l0,0C443.349,154.461,404.549,157.661,368.149,180.461z"/>
<g>
	<path style="fill:#FDD835;" d="M243.349,375.661l-14.8,15.6l-0.8,2l-20.8,17.6l17.2,15.6l0,0l3.2,4l4.4-5.2h0.8
		C235.349,410.461,238.949,393.661,243.349,375.661L243.349,375.661z"/>
	<path style="fill:#FDD835;" d="M244.149,369.261l-17.6-17.6l-6,6l-13.6,13.6l16.8,16.8l3.2,3.2l15.6-15.6h0.8c0.4-2,1.2-4,1.6-6.4
		H244.149z"/>
	<polygon style="fill:#FDD835;" points="226.949,312.061 214.549,324.461 206.949,332.061 218.149,343.261 226.949,351.661 
		246.549,332.061 	"/>
	
		<rect x="173.049" y="159.702" transform="matrix(0.7071 -0.7071 0.7071 0.7071 -68.0406 183.1396)" style="fill:#FDD835;" width="28" height="28"/>
	<polygon style="fill:#FDD835;" points="206.949,332.061 187.349,351.661 167.349,332.061 187.349,312.061 	"/>
	<polygon style="fill:#FDD835;" points="206.949,371.661 187.349,391.261 167.349,371.661 187.349,351.661 	"/>
	<polygon style="fill:#FDD835;" points="206.949,411.261 187.349,430.861 167.349,411.261 187.349,391.261 	"/>
	<polygon style="fill:#FDD835;" points="187.349,232.861 186.149,234.061 167.349,252.861 187.349,272.461 196.949,262.861 
		206.949,252.861 	"/>
	<path style="fill:#FDD835;" d="M187.349,312.061l-19.6,19.6l-15.2-15.2c0-3.2,0-6.4,0-9.6l15.2-15.2L187.349,312.061z"/>
	<path style="fill:#FDD835;" d="M187.349,351.661l-19.6,19.6l-13.6-13.6c-0.4-4-0.4-8-0.8-12l14.4-14.4L187.349,351.661z"/>
	<path style="fill:#FDD835;" d="M172.549,139.661h0.4l14,14l-19.6,19.6l-2.4,2.4C167.349,163.661,169.749,151.261,172.549,139.661z"
		/>
	<path style="fill:#FDD835;" d="M167.349,213.261l-9.2,9.2c0.8-5.6,1.2-11.2,2.4-16.4L167.349,213.261z"/>
	<path style="fill:#FDD835;" d="M163.349,252.861l-13.2,13.6c0.4-8.4,1.2-16.4,2-24.8L163.349,252.861z"/>
	<path style="fill:#FDD835;" d="M149.349,278.061l14,14l-15.2,15.2C148.549,298.061,148.949,288.061,149.349,278.061z"/>
</g>
<path d="M254.949,511.661c-39.2,0-70-14-70-32c0-2.4,1.6-4,4-4s4,1.6,4,4c0,11.2,25.6,24,62,24c38.8,0,61.2-12,62.4-34
	c0-2.4,2-4,4.4-3.6c2.4,0,4,2,3.6,4.4C324.549,482.461,316.149,511.661,254.949,511.661z"/>
<path d="M349.749,196.061c-2,0-3.6-1.2-4-3.2c-2.8-15.2-6-30-9.2-44c-4.8-19.2-10-36.4-15.2-52.4c-0.4-1.2-0.8-2-1.2-3.2
	c-7.2-20-14.8-37.2-23.2-50.8l-0.4-0.8c-0.4-0.8-0.8-1.6-1.2-2c0,0,0-0.4-0.4-0.4c-2-3.2-4-6-5.6-8l-0.4-0.4
	c-2.8-3.6-5.6-6.8-8.4-10c-8-8-15.6-12.4-23.2-12.8c-2.4,0-4-2-3.6-4.4c0-2.4,2-4,4.4-3.6c9.6,0.8,19.2,6,28.4,15.2
	c3.2,3.2,6,6.8,9.2,10.8l0.4,0.4c1.6,2.4,3.6,5.2,5.6,8c0,0.4,0.4,0.4,0.8,0.8c0.4,0.8,0.8,1.6,1.2,2l0.4,0.8
	c8.4,14,16.4,31.6,23.6,52c0.4,1.2,0.8,2,1.2,3.2c5.6,16,10.8,33.6,15.6,52.8c3.6,14.4,6.8,29.2,9.6,44.4c0.4,2-1.2,4.4-3.2,4.8
	C350.149,196.061,349.749,196.061,349.749,196.061z"/>
<path d="M176.949,130.861c-0.4,0-0.8,0-1.2,0c-2-0.8-3.2-2.8-2.8-4.8c0.8-2.8,1.6-6,2.4-9.2c3.6-13.2,7.6-27.2,12-38.4
	c2-5.6,4.4-10.8,6.8-16c18.4-40.8,39.6-62,60.8-62c0.8,0,2,0,2.8,0c2,0.4,3.6,2.4,3.6,4.4c-0.4,2-2,3.6-4.4,3.6c-0.8,0-1.2,0-2,0
	c-18,0-36.4,20-53.6,57.6c-2.4,4.8-4.4,10-6.8,15.6c-4.4,10.8-8,24.4-12,37.6c-0.8,3.2-1.6,6-2.4,9.2
	C180.149,129.661,178.549,130.861,176.949,130.861z"/>
<path d="M205.749,484.861c-0.8,0-1.6,0-2-0.4c-20.4-12.4-45.6-41.2-54.4-85.2c-4-19.6-6-43.2-6-72.4v-13.6l0,0
	c0-12.8,0.8-24,1.6-39.2l0.4-4.4c0-8.4,1.2-17.2,2.4-26l0.8-5.6c1.2-11.2,3.6-22,6-32.8c1.2-5.2,2-10.4,3.2-15.2
	c0-0.8,0.4-1.6,0.4-2.4s0.4-2,0.4-2.8c4-20.4,9.6-39.6,14.8-58l0.4-1.2c0.8-2,2.8-3.2,4.8-2.8c2,0.8,3.2,2.8,2.8,4.8l-0.4,1.2
	c-5.2,18.4-10.4,37.2-14.4,57.2c0,0.8-0.4,1.6-0.4,2.4s-0.4,2-0.4,2.8c-0.8,5.2-2,10.4-3.2,15.6c-2,10.4-4.4,21.6-5.6,32.4l-0.8,5.6
	c-1.2,8.4-2.4,16.8-2.4,25.2l-0.4,4.4c-0.8,15.2-1.6,26-1.6,38.8v13.6c0,28.8,2,52,6,70.8c8.4,41.6,31.6,68.8,50.8,80
	c2,1.2,2.4,3.6,1.2,5.6C208.549,484.061,207.349,484.861,205.749,484.861z"/>
<path d="M219.349,487.661c-0.4,0-0.8,0-1.2,0c-1.6-0.4-3.6-1.2-5.2-1.6c-2-0.8-3.2-3.2-2.4-5.2s3.2-3.2,5.2-2.4
	c1.6,0.4,3.2,1.2,4.8,1.6c2,0.8,3.2,2.8,2.8,4.8C222.949,486.461,221.349,487.661,219.349,487.661z"/>
<path d="M153.349,389.661c-1.2,0-2-0.4-2.8-1.2c-1.6-1.6-1.6-4,0-5.6l195.2-195.2c1.6-1.6,4-1.6,5.6,0s1.6,4,0,5.6l-195.2,195.2
	C155.349,389.261,154.149,389.661,153.349,389.661z"/>
<path d="M246.549,336.061c-1.2,0-2-0.4-2.8-1.2c-1.6-1.6-1.6-4,0-5.6l16.4-16.4c1.6-1.6,4-1.6,5.6,0s1.6,4,0,5.6l-16.4,16.4
	C248.549,335.661,247.749,336.061,246.549,336.061z"/>
<path d="M161.749,420.861c-1.2,0-2-0.4-2.8-1.2c-1.6-1.6-1.6-4,0-5.6l84.8-84.8c1.6-1.6,4-1.6,5.6,0s1.6,4,0,5.6l-84.8,84.8
	C163.749,420.461,162.949,420.861,161.749,420.861z"/>
<path d="M150.549,352.861c-1.2,0-2-0.4-2.8-1.2c-1.6-1.6-1.6-4,0-5.6l189.6-189.6c1.6-1.6,4-1.6,5.6,0s1.6,4,0,5.6l-189.6,189.6
	C152.549,352.461,151.349,352.861,150.549,352.861z"/>
<path d="M147.749,316.061c-1.2,0-2-0.4-2.8-1.2c-1.6-1.6-1.6-4,0-5.6l4.8-4.8l180.8-180.8c1.6-1.6,4-1.6,5.6,0s1.6,4,0,5.6
	l-185.6,185.6C149.749,315.661,148.549,316.061,147.749,316.061z"/>
<path d="M150.549,273.661c-1.2,0-2-0.4-2.8-1.2c-1.6-1.6-1.6-4,0-5.6l174.4-174.4c1.6-1.6,4-1.6,5.6,0s1.6,4,0,5.6l-174.4,174.4
	C152.549,273.261,151.349,273.661,150.549,273.661z"/>
<path d="M156.149,228.461c-1.2,0-2-0.4-2.8-1.2c-1.6-1.6-1.6-4,0-5.6l156-156l5.6,5.6l-156,156
	C158.149,228.061,156.949,228.461,156.149,228.461z"/>
<path d="M164.549,180.461c-1.2,0-2-0.4-2.8-1.2c-1.6-1.6-1.6-4,0-5.6l135.6-135.6c1.6-1.6,4-1.6,5.6,0s1.6,4,0.4,5.6l-0.4,0.4
	l-135.6,135.6C166.549,180.061,165.749,180.461,164.549,180.461z"/>
<path d="M177.349,130.061c-0.8,0-1.6-0.4-2.4-0.8c-1.6-1.2-2-4-0.8-5.6l8.8-11.2l0.4-0.4l97.2-96.8c1.6-1.6,4-1.6,5.6,0s1.6,4,0,5.6
	l-16.8,16.8l-80,79.6l-8.8,11.2C179.749,129.661,178.549,130.061,177.349,130.061z"/>
<path d="M246.549,19.261c-1.2,0-2-0.4-2.8-1.2c-1.6-1.6-1.6-4,0-5.6l11.2-11.2c1.6-1.6,4-1.6,5.6,0s1.6,4,0,5.6l-11.2,11.2
	C248.549,18.861,247.749,19.261,246.549,19.261z"/>
<path d="M198.149,67.661c-1.2,0-2-0.4-2.8-1.2c-1.6-1.6-1.6-4,0-5.6l48.8-48.4c1.6-1.6,4-1.6,5.6,0s1.6,4,0,5.6l-48.4,48.4
	C200.149,67.261,198.949,67.661,198.149,67.661z"/>
<path d="M215.349,486.061c-1.2,0-2-0.4-2.8-1.2c-1.6-1.6-1.6-4,0-5.6l11.6-11.6c1.6-1.6,4-1.6,5.6,0s1.6,4,0,5.6l-11.6,11.6
	C217.349,485.661,216.149,486.061,215.349,486.061z"/>
<path d="M190.149,471.661c-1.2,0-2-0.4-2.8-1.2c-1.6-1.6-1.6-4,0-5.6l0.8-0.8l32.4-29.6l4.4-5.6l4.8-5.6c1.6-1.6,4-2,5.6-0.4
	s2,4,0.4,5.6l-4.8,5.2l-4.4,5.6c0,0.4-0.4,0.4-0.8,0.8l-33.2,30.8C192.149,471.261,190.949,471.661,190.149,471.661z"/>
<path d="M172.949,449.261c-1.2,0-2-0.4-2.8-1.2c-1.6-1.6-1.6-4,0-5.6l14-14l39.6-36.4l0.8-2c0-0.4,0.4-0.8,0.8-1.2l14.8-16
	c1.6-1.6,4-1.6,5.6,0s1.6,4,0,5.6l-14.4,15.2l-0.8,2c-0.4,0.8-0.4,1.2-1.2,1.6l-18.8,16.8l-21.6,19.6l-14,14
	C174.949,448.861,174.149,449.261,172.949,449.261z"/>
<path d="M291.349,261.661c-1.2,0-2-0.4-2.8-1.2l-118-118c-1.6-1.6-1.6-4,0-5.6s4-1.6,5.6,0l118,118c1.6,1.6,1.6,4,0,5.6
	C293.349,261.261,292.149,261.661,291.349,261.661z"/>
<path d="M306.149,236.861c-1.2,0-2-0.4-2.8-1.2l-123.2-123.2c-1.6-1.6-1.6-4,0-5.6s4-1.6,5.6,0l123.2,123.2c1.6,1.6,1.6,4,0,5.6
	C308.149,236.461,306.949,236.861,306.149,236.861z"/>
<path d="M277.749,288.061c-1.2,0-2-0.4-2.8-1.2l-110.4-110.4c-1.6-1.6-1.6-4,0-5.6s4-1.6,5.6,0l110.4,110.4c1.6,1.6,1.6,4,0,5.6
	C279.749,287.661,278.549,288.061,277.749,288.061z"/>
<path d="M264.949,314.861c-1.2,0-2-0.4-2.8-1.2l-106-106c-1.6-1.6-1.6-4,0-5.6s4-1.6,5.6,0l106,106c1.6,1.6,1.6,4,0,5.6
	C266.949,314.461,266.149,314.861,264.949,314.861z"/>
<path d="M252.949,342.461c-1.2,0-2-0.4-2.8-1.2l-6-6c0,0-0.4,0-0.4-0.4l-20-20l-19.2-20c-0.4-0.4-0.8-1.2-0.8-1.6l0,0l-18.8-18
	l-34.4-34c-1.6-1.2-1.6-3.6-0.4-5.6c1.2-1.6,3.6-2,5.6-0.8l0.4,0.4l14.4,14l20,19.6l19.6,18.8c0.4,0.4,0.8,1.2,1.2,2l18.4,19.2
	l19.6,19.6c0,0,0.4,0,0.4,0.4l6.4,6.4c1.6,1.6,1.6,4,0,5.6C254.949,342.061,254.149,342.461,252.949,342.461z"/>
<path d="M153.349,282.061c-1.2,0-2-0.4-2.8-1.2l-2.8-2.8c-1.6-1.6-1.6-4,0-5.6s4-1.6,5.6,0l2.8,2.8c1.6,1.6,1.6,4,0,5.6
	C155.349,281.661,154.149,282.061,153.349,282.061z"/>
<path d="M244.149,373.261c-1.2,0-2-0.4-2.8-1.2l-91.2-91.2c-1.6-1.6-1.6-4,0-5.6s4-1.6,5.6,0l91.2,91.2c1.6,1.6,1.6,4,0,5.6
	C246.549,372.861,245.349,373.261,244.149,373.261z"/>
<path d="M236.149,404.861c-1.2,0-2-0.4-2.8-1.2l-88.4-88.8c-1.6-1.6-1.6-4,0-5.6s4-1.6,5.6,0l88.8,88.8c1.6,1.6,1.6,4,0,5.6
	C238.149,404.461,237.349,404.861,236.149,404.861z"/>
<path d="M230.549,438.861c-1.2,0-2-0.4-2.8-1.2l-80-80.4c-1.6-1.6-1.6-4,0-5.6s4-1.6,5.6,0l80,80.4c1.6,1.6,1.6,4,0,5.6
	C232.549,438.461,231.749,438.861,230.549,438.861z"/>
<path d="M226.949,474.461c-1.2,0-2-0.4-2.8-1.2l-72.8-72.8c-1.6-1.6-1.6-4,0-5.6s4-1.6,5.6,0l72.8,72.8c1.6,1.6,1.6,4,0,5.6
	C228.949,474.061,227.749,474.461,226.949,474.461z"/>
<path d="M339.749,152.061c-1.2,0-2-0.4-2.8-1.2l-118.8-118.8c-1.6-1.6-1.6-4,0-5.6s4-1.6,5.6,0l118.8,118.8c1.6,1.6,1.6,4,0,5.6
	C342.149,151.661,340.949,152.061,339.749,152.061z"/>
<path d="M323.749,96.061c-1.2,0-2-0.4-2.8-1.2l-37.6-37.6l-38.8-39.6c0,0,0,0-0.4-0.4l-5.6-5.2c-1.6-1.6-1.6-4-0.4-5.6
	c1.6-1.6,4-1.6,5.6-0.4l6,5.6l0.4,0.4l38.4,39.2l37.6,37.2c1.6,1.6,1.6,4,0,5.6C325.749,95.661,324.549,96.061,323.749,96.061z"/>
<path d="M347.349,199.261c-1.2,0-2-0.4-2.8-1.2l-143.2-143.2c-1.6-1.6-1.6-4,0-5.6s4-1.6,5.6,0l143.2,143.2c1.6,1.6,1.6,4,0,5.6
	C349.349,198.861,348.149,199.261,347.349,199.261z"/>
<path d="M326.549,218.061c-0.8,0-2-0.4-2.8-1.2l-0.8-0.8l-132.8-132.8c-1.6-1.6-1.6-4,0-5.6s4-1.6,5.6,0l133.6,134
	c1.6,1.6,1.6,4,0,5.6C328.549,217.661,327.749,218.061,326.549,218.061z"/>
<path d="M239.349,489.661c-4.4,0-8.8,0-13.2-0.4c-0.8,0-1.6,0-2.4,0h-0.8c-10.4-0.8-20.4-2.8-30-5.6l-1.6-0.4
	c-16.8-5.2-32-13.6-44.4-24.4l-0.4-0.4l-0.4-0.4c-4-3.6-7.6-7.2-11.2-11.2l0,0l0,0c-10-12-18-26.4-23.2-42.8c0-0.4,0-0.4-0.4-0.8
	v-0.4c-0.4-1.2-0.8-2.8-1.2-4c-1.2-4.4-2.4-8.8-3.2-12.8c-7.6-32-10.4-65.2-12.8-96.8c-0.8-11.6-1.6-22.4-2.8-33.2l0,0
	c-2.4-16.4-5.6-31.6-8.4-45.6c-5.2-24.8-13.6-44-25.2-58c-0.8-0.8-1.2-1.6-1.2-2.8c0-2,1.6-4,3.6-4l0,0l0,0l0,0l0,0l0,0
	c1.6,0,40.4,0,72.8,15.6c0.4,0,0.4,0.4,0.8,0.4c14.8,7.6,25.2,17.2,31.2,28.8c1.2,2,0.4,4.4-1.6,5.2c-2,1.2-4.4,0.4-5.2-1.6
	c-5.2-10-14.4-18.4-28-25.6c0,0-0.4,0-0.4-0.4c-22-10.4-47.6-13.2-60.4-14c10,14.4,17.2,32.4,22,54.8c3.2,14,6,29.6,8.4,46.4v0.4
	c1.2,10.4,2,21.6,2.8,33.2c2.4,31.6,4.8,64,12.4,95.2l0,0c0,0.4,0,0.4,0,0.8c0.8,4,2,8,3.2,12.4c0.4,1.2,0.8,2.4,1.2,3.6l0.4,1.6
	c4.8,15.2,12.4,28.8,21.6,40c0,0,0,0,0,0.4c3.2,3.6,6.8,7.2,10.4,10.8l0.4,0.4l0.4,0.4c11.6,10,25.6,17.6,41.2,22.4l1.6,0.4
	c8.8,2.8,18.4,4.4,28.4,5.2h0.8c0.8,0,1.6,0,2,0c13.2,0.8,26.4,0.4,40-1.6h0.4c0,0,0,0,0.4,0c8-1.2,16-2.8,24-5.2
	c2-0.4,4.4,0.8,4.8,2.8c0.4,2-0.8,4.4-2.8,4.8c-8.4,2.4-16.4,4-24.8,5.2c-0.4,0-0.4,0-0.8,0
	C258.149,488.861,248.549,489.661,239.349,489.661z"/>
<path d="M290.549,482.461c-1.6,0-3.2-1.2-4-2.8c-0.4-2,0.8-4.4,2.8-4.8c10.8-2.8,22-6.8,30-10.4c0.4,0,0.4,0,0.8-0.4
	c10.8-4,20.8-10.8,30.4-17.6c1.6-1.2,4.4-0.8,5.6,0.8c1.2,1.6,0.8,4.4-0.8,5.6c-10,7.2-20.8,14.8-32.8,18.8c0,0,0,0-0.4,0
	c-8.4,3.6-19.6,7.6-30.8,10.4C291.349,482.461,290.949,482.461,290.549,482.461z"/>
<path d="M353.349,453.661c-1.2,0-2.4-0.4-3.2-1.6c-1.2-1.6-0.8-4.4,0.8-5.6c20.8-14.8,35.2-32.4,42-50.8c2-6,4-12,6-18
	c0-0.4,0-0.4,0.4-0.8l0,0c8.4-31.6,12-66.4,15.2-100.4c0.8-9.6,2-19.2,2.8-28.4c0-0.4,0-0.4,0-0.8c0.8-6.4,2-12.4,3.2-18.4
	c1.2-5.2,2-10.4,2.8-15.6l0,0c2-16,5.6-30.8,11.2-43.6c2.4-5.2,4.8-10.4,7.6-15.6c-26.4,5.6-50.4,15.6-72.4,29.6
	c-1.2,0.8-2.4,1.6-3.6,2.4l-0.4,0.4c-1.6,1.2-4.4,0.8-5.6-0.8c-1.2-1.6-0.8-4.4,0.8-5.6l2.4,3.2l-2.4-3.2c0.4,0,0.4-0.4,0.8-0.4
	c1.2-0.8,2.4-1.6,3.6-2.4c25.2-16.4,54-27.2,84.8-32.8c1.6-0.4,3.2,0.4,4,2s0.8,3.2-0.4,4.4c-5.2,6.4-8.8,14-12,22
	c-5.2,12-8.8,26-10.4,41.2c0,0,0,0,0,0.4c-0.8,5.6-2,10.8-2.8,16.4c-1.2,6-2.4,12-3.2,18l0,0c-1.2,9.2-2,18.8-2.8,28.8
	c-3.2,34.4-6.8,70-15.6,102.4l0,0c0,0.4,0,0.4-0.4,0.8c-1.6,6-3.6,12-6,18c-7.2,20-22.8,39.2-44.8,54.8
	C354.949,453.261,354.149,453.661,353.349,453.661z"/>
<path d="M326.149,218.461c-1.2,0-2-0.4-2.8-1.2c-1.6-1.6-1.6-4,0-5.6c0-0.4,0.4-0.4,0.4-0.4c6.4-6.8,13.6-13.2,20.8-19.2
	c4-3.2,12-9.2,16.8-12.4c2-1.2,4.4-0.8,5.6,1.2c1.2,2,0.8,4.4-1.2,5.6c-4.4,3.2-12.4,8.8-16.4,12c-7.2,6-14,12-20,18.8l-0.4,0.4
	C328.549,218.061,327.349,218.461,326.149,218.461z"/>
<path d="M299.349,251.661c-0.8,0-1.6-0.4-2.4-0.8c-2-1.2-2.4-3.6-1.2-5.6c8.4-12,17.6-23.2,27.2-33.2c1.6-1.6,4-1.6,5.6,0
	s1.6,4,0,5.6c-9.2,9.6-18.4,20.8-26.4,32.4C301.749,250.861,300.549,251.661,299.349,251.661z"/>
<path d="M251.349,351.661c-0.4,0-0.8,0-1.2,0c-2-0.8-3.2-2.8-2.4-5.2c1.2-3.2,2.4-6.8,3.2-10c0-0.4,0-0.4,0.4-0.8l2.4-6.4v-0.4
	c2-5.6,4-10,5.6-14.4l0,0c0,0,0,0,0-0.4c0.4-1.2,0.8-2.4,1.6-3.6l0.4-0.8c4-9.2,8.4-18.4,12.8-27.2c6.8-12.8,14-25.2,22-36.4
	c1.2-2,3.6-2.4,5.6-1.2c2,1.2,2.4,3.6,1.2,5.6c-7.6,10.8-14.8,22.8-21.2,35.6c-4.4,8.4-8.8,17.6-12.4,26.8l-0.4,0.8
	c-0.4,1.2-1.2,2.4-1.6,3.6c0,0,0,0.4-0.4,0.4c-1.6,4-3.6,8.4-5.2,13.6c0,0.4,0,0.4-0.4,0.8l-2.4,6.8c-1.2,3.6-2.4,6.8-3.2,10
	C254.549,350.461,252.949,351.661,251.349,351.661z"/>
<path d="M230.949,441.261h-0.4c-2-0.4-3.6-2.4-3.6-4.4c0.4-3.6,1.2-7.6,1.6-11.6c2.8-17.2,6.4-34,10.4-50.4c0.4-1.6,0.8-3.2,1.2-5.2
	l0.4-1.2c2.4-8,4.4-15.2,6.4-22c0.8-2,2.8-3.2,5.2-2.4c2,0.8,3.2,2.8,2.4,5.2c-2,6.4-4.4,13.6-6.4,21.6l-0.4,1.2
	c-0.4,1.6-0.8,3.2-1.2,4.8c-4,16-7.6,32.8-10.4,49.6c-0.8,4-1.2,7.6-1.6,11.2C234.549,439.661,232.949,441.261,230.949,441.261z"/>
<path d="M226.549,488.861L226.549,488.861c-2.4,0-4-2-4-4v-4.4c0-1.2,0-2.4,0-3.6c0.4-8.4,1.6-22,4-39.2c0.4-2,2.4-3.6,4.4-3.6
	c2,0.4,3.6,2.4,3.6,4.4c-2.4,16.8-3.6,30-4,38.4c0,1.2,0,2.4,0,3.6v4.4C230.549,487.261,228.549,488.861,226.549,488.861z"/>
<path d="M226.549,488.861c-2,0-3.6-1.6-4-3.6c0-2,1.6-4,3.6-4.4c0.4,0,20.8-2,46.4-12.4c25.6-10.4,61.6-31.6,84.8-72.8
	c1.6-2.8,3.2-5.6,4.4-8.8c3.2-6,5.6-13.2,8.4-20.4c0.8-1.6,1.2-3.2,1.6-5.2c0.8-2,2.8-3.2,5.2-2.4c2,0.8,3.2,2.8,2.4,5.2
	c-0.4,1.6-1.2,3.6-1.6,5.2c-2.8,7.6-5.6,14.8-8.8,21.2c-1.6,3.2-3.2,6.4-4.8,9.2c-24.8,42.8-62,65.2-88.8,76
	C248.549,486.861,227.749,488.461,226.549,488.861C226.949,488.861,226.549,488.861,226.549,488.861z"/>
<path d="M382.149,344.061c-0.4,0-0.8,0-0.8,0c-2-0.4-3.6-2.8-2.8-4.8c3.2-13.6,6-27.6,8-40.8c0.4-2,2.4-3.6,4.8-3.2
	c2,0.4,3.6,2.4,3.2,4.8c-2.4,13.2-4.8,27.6-8.4,41.2C385.749,342.861,384.149,344.061,382.149,344.061z"/>
<path d="M407.749,217.261c-0.4,0-0.8,0-1.2,0c-2-0.8-3.2-2.8-2.8-4.8c8.4-28.8,20-48,35.6-60.8c1.6-1.2,4.4-1.2,5.6,0.4
	c1.2,1.6,1.2,4.4-0.4,5.6c-14.4,11.6-24.8,29.6-32.8,56.8C410.949,216.061,409.349,217.261,407.749,217.261z"/>
<path d="M442.149,158.461c-1.2,0-2.4-0.4-3.2-1.6c-1.2-1.6-1.2-4.4,0.4-5.6c3.2-2.4,6-4.8,9.6-6.8c2-1.2,4.4-0.4,5.6,1.6
	s0.4,4.4-1.6,5.6c-3.2,1.6-6,3.6-8.4,6C443.749,158.061,442.949,158.461,442.149,158.461z"/>
<g>
</g>
<g>
</g>
<g>
</g>
<g>
</g>
<g>
</g>
<g>
</g>
<g>
</g>
<g>
</g>
<g>
</g>
<g>
</g>
<g>
</g>
<g>
</g>
<g>
</g>
<g>
</g>
<g>
</g>
</svg>
