<?xml version="1.0" encoding="iso-8859-1"?>
<!-- Generator: Adobe Illustrator 19.0.0, SVG Export Plug-In . SVG Version: 6.00 Build 0)  -->
<svg version="1.1" id="Layer_1" xmlns="http://www.w3.org/2000/svg" xmlns:xlink="http://www.w3.org/1999/xlink" x="0px" y="0px"
	 viewBox="0 0 448.019 448.019" style="enable-background:new 0 0 448.019 448.019;" xml:space="preserve">
<g transform="translate(0 -1020.36)">
	<g shape-rendering="auto" image-rendering="auto" color-rendering="auto" color-interpolation="sRGB">
		<path style="fill:#464C63;" d="M95.993,1108.37c-29.485,0-52.766,20.369-68.594,46.688c-15.829,26.318-25.078,59.244-27.093,88.75
			c-2.197,32.172,7.549,58.74,25.218,76.875c17.669,18.137,42.854,27.686,70.469,27.686c16.698,0,32.304-3.758,46.062-10.531
			c3.318,5.414,7.139,10.402,11.469,14.846c17.667,18.137,42.854,27.686,70.469,27.686s52.802-9.551,70.469-27.686
			c4.328-4.443,8.149-9.43,11.469-14.846c13.757,6.773,29.363,10.531,46.062,10.531c27.614,0,52.8-9.551,70.469-27.686
			c17.669-18.135,27.448-44.703,25.251-76.875c-2.014-29.506-11.266-62.432-27.094-88.75
			c-15.827-26.318-39.141-46.688-68.626-46.688c-18.845,0-35.418,8.502-48.718,21.344c-10.416,10.057-19.006,22.801-25.968,36.813
			c-14.298-15.615-32.184-26.156-53.314-26.156c-21.123,0-38.986,10.551-53.28,26.156c-6.962-14.012-15.554-26.756-25.97-36.813
			C131.444,1116.872,114.838,1108.37,95.993,1108.37L95.993,1108.37z M95.993,1124.37c14.107,0,26.494,6.094,37.626,16.846
			c10.282,9.926,18.81,24.311,25.688,39.906c-1.312,1.965-2.678,3.893-3.907,5.938c-15.827,26.318-25.078,59.246-27.093,88.75
			c-1.184,17.359,1.2,33.004,6.344,46.656c-11.406,5.787-24.12,9.906-38.658,9.906c-23.955,0-44.698-8.162-59.03-22.873
			s-22.63-36.152-20.688-64.596c1.84-26.932,10.637-58.021,24.813-81.594c14.176-23.57,32.821-38.938,54.906-38.938V1124.37z
			 M351.993,1124.37c22.083,0,40.731,15.367,54.907,38.938c14.176,23.572,23.005,54.664,24.843,81.594
			c1.942,28.443-6.386,49.885-20.718,64.596c-14.333,14.713-35.078,22.873-59.032,22.873c-14.534,0-27.251-4.094-38.656-9.873
			c5.024-13.34,7.376-28.611,6.376-45.5c-0.016-0.416,0-0.736,0-1.152c-0.16-1.057-0.352-2.182-0.432-3.25
			c-0.592-6.893-1.488-13.902-2.843-21c-4.28-22.42-12.258-45.229-23.843-64.5c-1.232-2.045-2.589-3.973-3.907-5.938
			c6.878-15.602,15.403-29.975,25.688-39.906c11.133-10.75,23.517-16.844,37.624-16.844L351.993,1124.37z M273.868,1220.276
			c0.272-0.014,0.544-0.014,0.816,0c3.587-0.029,6.755,2.334,7.75,5.781c0,0,1.392,4.809,2.75,10.844
			c1.376,6.033,2.811,13.127,2.811,19.377c0.001,0.064,0.001,0.127,0,0.191c-0.16,6.262-1.73,13.311-3.218,19.344
			c-1.504,6.031-2.97,10.844-2.97,10.844c-1.297,4.225-5.772,6.598-9.996,5.301c-0.053-0.016-0.106-0.033-0.159-0.051
			c-7.715-2.547-15.934-5.691-23.658-10.5v42.969c-0.002,4.418-3.585,8-8.004,7.998c-2.12-0.002-4.152-0.844-5.652-2.342
			l-10.344-10.342l-10.342,10.342c-3.125,3.125-8.191,3.123-11.315-0.002c-1.5-1.5-2.342-3.533-2.343-5.654v-42.938
			c-7.734,4.82-15.93,7.979-23.656,10.531c-4.196,1.385-8.72-0.895-10.105-5.092c-0.017-0.053-0.034-0.105-0.051-0.158
			c0,0-1.488-4.814-2.97-10.844c-1.488-6.039-3.059-13.084-3.219-19.344c-0.001-0.064-0.001-0.127,0-0.191
			c0-6.25,1.456-13.34,2.813-19.375c1.36-6.035,2.75-10.846,2.75-10.846c0.924-3.232,3.771-5.543,7.125-5.781
			c0.532-0.053,1.068-0.053,1.6,0c0,0,22.32,2.189,37.875,15.25c3.539-2.049,7.587-3.313,11.938-3.313
			c4.286,0,8.27,1.232,11.75,3.25c15.523-13.047,37.683-15.242,37.843-15.25l0,0c0.053,0,0.107,0,0.16,0H273.868z"/>
		<path style="fill:#FFB900;" d="M223.993,1156.37c-18.99,0.014-35.384,11.41-48.624,29.594c-0.052,0.064-0.106,0.129-0.16,0.191
			c-2.206,3.031-4.312,6.234-6.312,9.596c-3.056,5.123-5.776,10.67-8.312,16.375c-0.544,1.199-1.088,2.377-1.6,3.594
			c-2.141,5.119-4.011,10.42-5.718,15.781c-1.73,5.426-3.11,10.938-4.374,16.438c-0.496,2.182-1.184,4.357-1.6,6.531
			c-1.472,7.617-2.566,15.193-3.062,22.438c-0.32,4.289-0.368,8.35-0.192,12.314c0,0.912,0.224,1.775,0.224,2.656
			c0.224,3.211,0.528,6.348,1.024,9.342c0.16,0.672,0.24,1.359,0.4,2.031c1.456,7.463,3.718,14.281,6.749,20.406
			c0.129,0.234,0.247,0.475,0.352,0.721c3.293,6.445,7.358,12.199,12.157,17.125c14.331,14.713,35.045,22.875,59,22.875
			s44.698-8.164,59.03-22.875c4.869-4.998,8.971-10.844,12.282-17.406c0.06-0.146,0.124-0.289,0.192-0.432
			c3.014-6.09,5.294-12.871,6.75-20.281c0.16-0.816,0.24-1.635,0.4-2.467c0.464-2.689,0.72-5.514,0.944-8.377
			c0.16-1.232,0.288-2.455,0.288-3.719c0-3.168,0-6.441-0.16-9.813v-2.094c0-1.039-0.24-2.195-0.4-3.252
			c-0.544-6.268-1.36-12.674-2.624-19.188c-0.432-2.178-1.104-4.346-1.6-6.531c-1.264-5.52-2.632-11.055-4.374-16.5
			c-1.664-5.234-3.483-10.402-5.562-15.406c-0.624-1.504-1.312-2.934-1.97-4.406c-2.318-5.17-4.811-10.182-7.563-14.875
			c-2.163-3.713-4.427-7.275-6.843-10.594c-0.089-0.119-0.174-0.242-0.256-0.367c-13.221-18.066-29.581-29.395-48.501-29.406
			L223.993,1156.37z M273.868,1220.276c0.272-0.014,0.544-0.014,0.816,0c3.587-0.029,6.755,2.334,7.75,5.781
			c0,0,1.392,4.809,2.75,10.844c1.376,6.033,2.811,13.127,2.811,19.377c0.001,0.064,0.001,0.127,0,0.191
			c-0.16,6.262-1.73,13.311-3.218,19.344c-1.504,6.031-2.97,10.844-2.97,10.844c-1.297,4.225-5.772,6.598-9.996,5.301
			c-0.053-0.016-0.106-0.033-0.159-0.051c-7.715-2.547-15.934-5.691-23.658-10.5v42.969c-0.002,4.418-3.585,8-8.004,7.998
			c-2.12-0.002-4.152-0.844-5.652-2.342l-10.344-10.342l-10.342,10.342c-3.125,3.125-8.191,3.123-11.315-0.002
			c-1.5-1.5-2.342-3.533-2.343-5.654v-42.938c-7.734,4.82-15.93,7.979-23.656,10.531c-4.196,1.385-8.72-0.895-10.105-5.092
			c-0.017-0.053-0.034-0.105-0.051-0.158c0,0-1.488-4.814-2.97-10.844c-1.488-6.039-3.059-13.084-3.219-19.344
			c-0.001-0.064-0.001-0.127,0-0.191c0-6.25,1.456-13.34,2.813-19.375c1.36-6.035,2.75-10.846,2.75-10.846
			c0.924-3.232,3.771-5.543,7.125-5.781c0.532-0.053,1.068-0.053,1.6,0c0,0,22.32,2.189,37.875,15.25
			c3.539-2.049,7.587-3.313,11.938-3.313c4.286,0,8.27,1.232,11.75,3.25c15.523-13.047,37.683-15.242,37.843-15.25l0,0
			c0.053,0,0.107,0,0.16,0H273.868z"/>
		<path style="fill:#464C63;" d="M273.681,1220.3c-0.16,0.01-22.32,2.203-37.843,15.252c-3.48-2.014-7.464-3.252-11.75-3.252
			c-4.35,0-8.398,1.264-11.938,3.314c-15.555-13.059-37.875-15.25-37.875-15.25c-0.532-0.053-1.068-0.053-1.6,0
			c-3.354,0.238-6.201,2.549-7.125,5.781c0,0-1.392,4.809-2.75,10.844c-1.36,6.033-2.813,13.127-2.813,19.377
			c-0.001,0.064-0.001,0.127,0,0.191c0.16,6.26,1.73,13.303,3.219,19.342c1.488,6.029,2.97,10.846,2.97,10.846
			c1.297,4.225,5.772,6.598,9.996,5.301c0.053-0.016,0.106-0.033,0.159-0.051c7.726-2.553,15.922-5.711,23.656-10.531v42.938
			c0.001,4.418,3.584,8,8.003,7.998c2.121,0,4.155-0.842,5.655-2.342l10.342-10.344l10.344,10.344
			c3.126,3.123,8.192,3.121,11.315-0.004c1.498-1.5,2.34-3.533,2.341-5.652v-42.969c7.723,4.809,15.942,7.953,23.658,10.5
			c4.196,1.385,8.72-0.895,10.105-5.092c0.017-0.053,0.034-0.105,0.051-0.158c0,0,1.472-4.813,2.97-10.846
			c1.488-6.033,3.098-13.084,3.218-19.344c0.001-0.064,0.001-0.127,0-0.191c0-6.25-1.44-13.34-2.811-19.375
			c-1.36-6.035-2.75-10.844-2.75-10.844c-0.994-3.447-4.162-5.811-7.75-5.783c-0.325-0.02-0.651-0.02-0.976,0H273.681z
			 M178.805,1238.896L178.805,1238.896c5.658,1.217,15.363,2.781,22.843,8.906c-1.056,2.689-1.688,5.586-1.688,8.625
			c0,1.473,0.176,2.906,0.432,4.313c-5.642,5.996-13.626,8.713-21.531,11.781c-0.16-0.287-0.16-0.207-0.16-0.496
			c-1.376-5.553-2.678-12.424-2.75-15.75c0.013-3.344,1.152-10.207,2.406-15.748c0.208-0.896,0.208-0.801,0.4-1.625
			L178.805,1238.896z M269.119,1238.896L269.119,1238.896c0.192,0.768,0.208,0.721,0.4,1.6c1.248,5.541,2.422,12.404,2.437,15.748
			c0,3.326-1.376,10.199-2.749,15.75c0,0.305,0,0.24-0.192,0.527c-7.906-3.068-15.89-5.783-21.531-11.781
			c0.256-1.393,0.432-2.793,0.432-4.25c0-3.053-0.64-5.979-1.688-8.688c7.482-6.125,17.187-7.684,22.845-8.906H269.119z
			 M215.993,1278.802c2.552,0.928,5.253,1.568,8.094,1.568c2.781,0,5.413-0.576,7.906-1.473v26.156l-2.342-2.344
			c-3.124-3.123-8.189-3.123-11.314,0l-2.344,2.344V1278.802z"/>
		<path style="fill:#FFB900;" d="M224.081,1248.337c4.517,0,7.907,3.42,7.907,8.094c0,4.65-3.254,7.906-7.907,7.906
			s-8.093-3.373-8.093-7.906C215.988,1251.896,219.546,1248.337,224.081,1248.337z"/>
	</g>
	<g>
		<path style="fill:#464C63;" d="M80.002,1252.359c0,4.418-3.582,8-8,8s-8-3.582-8-8s3.582-8,8-8S80.002,1247.941,80.002,1252.359z"
			/>
		<path style="fill:#464C63;" d="M384.002,1252.359c0,4.418-3.582,8-8,8s-8-3.582-8-8s3.582-8,8-8
			S384.002,1247.941,384.002,1252.359z"/>
		<g shape-rendering="auto" image-rendering="auto" color-rendering="auto" color-interpolation="sRGB">
			<path style="fill:#464C63;" d="M8.124,1244.37c-4.418-0.063-8.051,3.469-8.113,7.887s3.469,8.051,7.887,8.113
				c0.075,0.002,0.151,0.002,0.226,0h39.781c4.418,0.063,8.051-3.469,8.113-7.887c0.062-4.418-3.469-8.051-7.887-8.113
				c-0.075-0.002-0.151-0.002-0.226,0H8.124z"/>
			<path style="fill:#464C63;" d="M400.124,1244.37c-4.418-0.063-8.051,3.469-8.113,7.887c-0.062,4.418,3.469,8.051,7.887,8.113
				c0.075,0.002,0.151,0.002,0.226,0h39.781c4.418,0.063,8.051-3.469,8.113-7.887c0.062-4.418-3.469-8.051-7.887-8.113
				c-0.075-0.002-0.151-0.002-0.226,0H400.124z"/>
			<path style="fill:#464C63;" d="M96.124,1244.37c-4.418-0.063-8.051,3.469-8.113,7.887c-0.062,4.418,3.469,8.051,7.887,8.113
				c0.075,0.002,0.151,0.002,0.226,0h71.781c4.418,0.063,8.051-3.469,8.113-7.887s-3.469-8.051-7.887-8.113
				c-0.075-0.002-0.151-0.002-0.226,0H96.124z"/>
			<path style="fill:#464C63;" d="M280.124,1244.37c-4.418-0.063-8.051,3.469-8.113,7.887c-0.062,4.418,3.469,8.051,7.887,8.113
				c0.075,0.002,0.151,0.002,0.226,0h71.781c4.418,0.063,8.051-3.469,8.113-7.887c0.062-4.418-3.469-8.051-7.887-8.113
				c-0.075-0.002-0.151-0.002-0.226,0H280.124z"/>
		</g>
	</g>
</g>
<g>
</g>
<g>
</g>
<g>
</g>
<g>
</g>
<g>
</g>
<g>
</g>
<g>
</g>
<g>
</g>
<g>
</g>
<g>
</g>
<g>
</g>
<g>
</g>
<g>
</g>
<g>
</g>
<g>
</g>
</svg>
