<?xml version="1.0" encoding="iso-8859-1"?>
<!-- Generator: Adobe Illustrator 19.0.0, SVG Export Plug-In . SVG Version: 6.00 Build 0)  -->
<svg version="1.1" id="Layer_1" xmlns="http://www.w3.org/2000/svg" xmlns:xlink="http://www.w3.org/1999/xlink" x="0px" y="0px"
	 viewBox="0 0 512.001 512.001" style="enable-background:new 0 0 512.001 512.001;" xml:space="preserve">
<path style="fill:#DBAC67;" d="M242.013,108.642l-47.985-47.985c-7.233-7.233-7.233-18.958,0-26.191
	c7.231-7.233,18.958-7.233,26.191,0l48.337,48.337c3.473,3.473,5.425,8.183,5.425,13.095
	C273.981,112.658,253.448,120.707,242.013,108.642z"/>
<path style="fill:#1DA49C;" d="M255.461,114.43c-9.271,0-16.951-6.813-18.307-15.706c-12.97-63.406,45.345-112.287,102.541-95.329
	c6.355,1.884,11.217,7.019,12.752,13.465c11.996,50.366-25.403,98.812-76.954,100.13C269.605,117.148,267.504,114.43,255.461,114.43
	z M236.941,95.944c0,0.005,0,0.01,0,0.015C236.941,95.954,236.941,95.949,236.941,95.944z M236.941,95.91c0,0.009,0,0.019,0,0.027
	C236.941,95.928,236.941,95.92,236.941,95.91z"/>
<path style="fill:#FF5E5B;" d="M255.979,512.001c-54.479,0-95.772-47.816-89.483-100.705c-56.42-11.143-88.646-73.81-63.712-126.568
	c-53.257-57.883-10.638-153.766,69.576-150.869c13.539-33.954,46.659-56.445,85.741-56.445c0.183,0,0.365,0.002,0.547,0.007
	c36.037,1.067,67.72,23.915,80.888,56.44c79.973-2.968,123.125,92.73,69.637,150.865c24.96,52.801-7.33,115.423-63.713,126.568
	C351.758,464.247,310.387,512.001,255.979,512.001z"/>
<g>
	<path style="fill:#ED3E3C;" d="M339.538,133.862c-13.169-32.524-44.851-55.373-80.888-56.44c-0.183-0.005-0.364-0.007-0.547-0.007
		c-0.711,0-1.416,0.023-2.124,0.038v434.548c54.475,0,95.771-47.821,89.483-100.706c56.314-11.132,88.704-73.701,63.713-126.568
		C462.419,226.857,419.792,130.884,339.538,133.862z"/>
	<path style="fill:#ED3E3C;" d="M255.982,361.309c-36.377,0-65.971-29.595-65.971-65.971c0-10.228,8.292-18.52,18.52-18.52
		s18.52,8.292,18.52,18.52c0,15.953,12.979,28.932,28.932,28.932c10.228,0,18.52,8.292,18.52,18.52S266.21,361.309,255.982,361.309z
		"/>
</g>
<path style="fill:#D62F2D;" d="M255.982,324.269c0,0-0.001,0-0.002,0v37.04c10.232,0,18.522-8.292,18.522-18.52
	S266.21,324.269,255.982,324.269z"/>
<g>
</g>
<g>
</g>
<g>
</g>
<g>
</g>
<g>
</g>
<g>
</g>
<g>
</g>
<g>
</g>
<g>
</g>
<g>
</g>
<g>
</g>
<g>
</g>
<g>
</g>
<g>
</g>
<g>
</g>
</svg>
