<?xml version="1.0" encoding="iso-8859-1"?>
<!-- Generator: Adobe Illustrator 19.0.0, SVG Export Plug-In . SVG Version: 6.00 Build 0)  -->
<svg version="1.1" id="Layer_1" xmlns="http://www.w3.org/2000/svg" xmlns:xlink="http://www.w3.org/1999/xlink" x="0px" y="0px"
	 viewBox="0 0 512 512" style="enable-background:new 0 0 512 512;" xml:space="preserve">
<path style="fill:#39B54A;" d="M256,62.23L256,62.23c0-30.174,25.835-54.33,56.008-54.33c30.174,0,54.794,23.55,54.794,53.724
	v63.207h-48.084V62.23c0-17.433-13.925-31.566-31.359-31.566S256,44.795,256,62.23z"/>
<path style="fill:#8CC63F;" d="M312.007,7.898c-4.037,0-7.564,0.462-11.389,1.284c24.46,5.24,43.185,26.347,43.185,52.44v63.207
	h22.997V61.622C366.802,31.449,342.182,7.898,312.007,7.898z"/>
<path style="fill:#39B54A;" d="M256,62.23L256,62.23c0-30.174-25.835-54.33-56.008-54.33s-54.794,23.55-54.794,53.724v63.207h48.084
	V62.23c0-17.433,13.925-31.566,31.359-31.566s31.462,14.132,31.462,31.566"/>
<path style="fill:#006837;" d="M199.992,7.898c4.037,0,7.563,0.462,11.389,1.284c-24.46,5.24-43.185,26.347-43.185,52.44v63.207
	h-22.997V61.622C145.199,31.449,169.819,7.898,199.992,7.898z"/>
<path style="fill:#FF1D25;" d="M350.693,117.513h-63.727c5.238,0-37.176,15.679-31.489,15.679l0,0
	c5.687,0-35.679-15.679-30.441-15.679h-63.738c-39.941,15.679-61.288,64.355-44.206,107.716l77.807,197.094
	c6.297,15.986,10.776,32.37,15.879,48.776c5.995,19.275,23.974,33.165,45.221,33.165s39.226-14.047,45.221-33.322
	c5.103-16.406,9.582-33.024,15.879-49.01l77.807-196.689C411.99,181.879,390.639,133.192,350.693,117.513z"/>
<path style="fill:#B20209;" d="M226.563,471.093c-5.103-16.406-9.582-32.795-15.879-48.781l-77.807-197.084
	c-17.082-43.361,4.265-92.036,44.206-107.716h-15.783c-39.941,15.679-61.288,64.354-44.206,107.716l77.807,197.094
	c6.297,15.986,10.776,32.37,15.879,48.776c5.995,19.275,23.974,33.166,45.221,33.166c2.684,0,5.315-0.232,7.878-0.663
	C246.172,500.645,231.797,487.924,226.563,471.093z"/>
<path style="fill:#FF4A51;" d="M350.693,117.513H334.91c39.946,15.679,61.297,64.365,44.214,107.731l-77.807,196.699
	c-6.297,15.986-10.776,32.599-15.879,49.005c-5.237,16.839-19.622,29.678-37.342,32.657c2.571,0.43,5.21,0.66,7.905,0.66
	c21.247,0,39.226-14.047,45.221-33.321c5.103-16.406,9.582-33.024,15.879-49.01l77.807-196.689
	C411.99,181.879,390.639,133.192,350.693,117.513z"/>
<path style="fill:#39B54A;" d="M256,109.579c0-26.15,21.411-47.35,47.561-47.35c26.15,0,47.561,21.199,47.561,47.35v31.566
	c0,13.076-10.444,23.675-23.519,23.675s-23.519-10.599-23.519-23.675v-31.566c0-13.076-10.966-23.675-24.042-23.675
	C266.967,85.905,256,96.504,256,109.579"/>
<path style="fill:#8CC63F;" d="M303.561,62.23c-2.695,0-5.685,0.277-8.257,0.71c22.385,3.764,39.093,23.184,39.093,46.64v31.566
	c0,10.293-6.349,18.964-15.524,22.225c2.479,0.881,5.45,1.45,8.233,1.45c13.076,0,24.016-10.599,24.016-23.675v-31.567
	C351.123,83.428,329.712,62.23,303.561,62.23z"/>
<path style="fill:#39B54A;" d="M256,109.579c0-26.15-21.411-47.35-47.561-47.35s-47.561,21.199-47.561,47.35v31.566
	c0,13.076,10.444,23.675,23.519,23.675s23.519-10.599,23.519-23.675v-31.566c0-13.076,10.966-23.675,24.042-23.675
	C245.033,85.905,256,96.504,256,109.579"/>
<path style="fill:#006837;" d="M208.439,62.23c2.695,0,5.685,0.277,8.257,0.71c-22.385,3.764-39.093,23.184-39.093,46.64v31.566
	c0,10.293,6.349,18.964,15.524,22.225c-2.479,0.881-5.45,1.45-8.233,1.45c-13.076,0-24.016-10.599-24.016-23.675v-31.567
	C160.878,83.428,182.288,62.23,208.439,62.23z"/>
<g>
	<rect x="223.6" y="441.555" style="fill:#FBB03B;" width="16.725" height="15.679"/>
	<rect x="271.684" y="441.555" style="fill:#FBB03B;" width="16.725" height="15.679"/>
	<rect x="223.6" y="378.837" style="fill:#FBB03B;" width="16.725" height="15.679"/>
	<rect x="184.924" y="378.837" style="fill:#FBB03B;" width="15.679" height="15.679"/>
	<rect x="271.684" y="378.837" style="fill:#FBB03B;" width="16.725" height="15.679"/>
	<rect x="311.405" y="378.837" style="fill:#FBB03B;" width="15.679" height="15.679"/>
	<rect x="223.6" y="314.029" style="fill:#FBB03B;" width="16.725" height="15.679"/>
	<rect x="177.607" y="314.029" style="fill:#FBB03B;" width="15.679" height="15.679"/>
	<rect x="271.684" y="314.029" style="fill:#FBB03B;" width="16.725" height="15.679"/>
	<rect x="318.722" y="314.029" style="fill:#FBB03B;" width="15.679" height="15.679"/>
	<rect x="223.6" y="251.311" style="fill:#FBB03B;" width="16.725" height="15.679"/>
	<rect x="177.607" y="251.311" style="fill:#FBB03B;" width="15.679" height="15.679"/>
	<rect x="130.569" y="251.311" style="fill:#FBB03B;" width="14.634" height="15.679"/>
	<rect x="366.806" y="251.311" style="fill:#FBB03B;" width="14.634" height="15.679"/>
	<rect x="271.684" y="251.311" style="fill:#FBB03B;" width="16.725" height="15.679"/>
	<rect x="318.722" y="251.311" style="fill:#FBB03B;" width="15.679" height="15.679"/>
	<rect x="223.6" y="187.548" style="fill:#FBB03B;" width="16.725" height="15.679"/>
	<rect x="223.6" y="124.83" style="fill:#FBB03B;" width="16.725" height="15.679"/>
	<rect x="177.607" y="187.548" style="fill:#FBB03B;" width="15.679" height="15.679"/>
	<rect x="130.569" y="187.548" style="fill:#FBB03B;" width="14.634" height="15.679"/>
	<rect x="366.806" y="187.548" style="fill:#FBB03B;" width="14.634" height="15.679"/>
	<rect x="271.684" y="187.548" style="fill:#FBB03B;" width="16.725" height="15.679"/>
	<rect x="318.722" y="187.548" style="fill:#FBB03B;" width="15.679" height="15.679"/>
	<rect x="248.687" y="409.151" style="fill:#FBB03B;" width="14.634" height="15.679"/>
	<rect x="295.726" y="409.151" style="fill:#FBB03B;" width="15.679" height="15.679"/>
	<rect x="200.604" y="409.151" style="fill:#FBB03B;" width="15.679" height="15.679"/>
	<rect x="248.687" y="346.433" style="fill:#FBB03B;" width="14.634" height="15.679"/>
	<rect x="295.726" y="346.433" style="fill:#FBB03B;" width="15.679" height="15.679"/>
	<rect x="200.604" y="346.433" style="fill:#FBB03B;" width="15.679" height="15.679"/>
	<rect x="248.687" y="283.715" style="fill:#FBB03B;" width="14.634" height="15.679"/>
	<rect x="295.726" y="283.715" style="fill:#FBB03B;" width="15.679" height="15.679"/>
	<rect x="343.81" y="283.715" style="fill:#FBB03B;" width="15.679" height="15.679"/>
	<rect x="200.604" y="283.715" style="fill:#FBB03B;" width="15.679" height="15.679"/>
	<rect x="152.52" y="283.715" style="fill:#FBB03B;" width="15.679" height="15.679"/>
	<rect x="248.687" y="219.952" style="fill:#FBB03B;" width="14.634" height="15.679"/>
	<rect x="295.726" y="219.952" style="fill:#FBB03B;" width="15.679" height="15.679"/>
	<rect x="343.81" y="219.952" style="fill:#FBB03B;" width="15.679" height="15.679"/>
	<rect x="200.604" y="219.952" style="fill:#FBB03B;" width="15.679" height="15.679"/>
	<rect x="152.52" y="219.952" style="fill:#FBB03B;" width="15.679" height="15.679"/>
	<rect x="248.687" y="157.234" style="fill:#FBB03B;" width="14.634" height="15.679"/>
	<rect x="295.726" y="157.234" style="fill:#FBB03B;" width="15.679" height="15.679"/>
	<rect x="343.81" y="157.234" style="fill:#FBB03B;" width="15.679" height="15.679"/>
	<rect x="200.604" y="157.234" style="fill:#FBB03B;" width="15.679" height="15.679"/>
	<rect x="152.52" y="157.234" style="fill:#FBB03B;" width="15.679" height="15.679"/>
	<rect x="248.687" y="471.869" style="fill:#FBB03B;" width="14.634" height="15.679"/>
	<rect x="271.684" y="124.83" style="fill:#FBB03B;" width="16.725" height="15.679"/>
</g>
<path d="M374.119,120.747V61.622c0-16.668-6.503-32.234-18.311-43.805C344.094,6.336,328.441,0,311.734,0
	C287.751,0,266.833,12.92,256,32.119C245.167,12.92,224.248,0,200.266,0c-16.707,0-32.36,6.348-44.075,17.83
	c-11.808,11.571-18.311,27.124-18.311,43.793v59.125c-30.709,24.4-43.322,67.836-28.083,106.521l77.808,197.511
	c4.581,11.627,8.283,23.946,11.864,35.859c1.261,4.197,2.522,8.395,3.824,12.579C210.507,496.415,231.689,512,256,512
	s45.492-15.585,52.706-38.781c1.302-4.185,2.564-8.383,3.825-12.58c3.581-11.913,7.284-24.233,11.864-35.859l77.808-197.511
	C417.442,188.582,404.828,145.148,374.119,120.747z M311.734,15.705c26.19,0,46.706,20.169,46.706,45.918v37.324
	c-3.495-17.723-15.545-32.496-31.69-39.815c-1.515-20.523-18.526-36.368-39.234-36.368c-0.351,0-0.702-0.07-1.052-0.061
	C293.805,18.269,302.466,15.705,311.734,15.705z M279.781,77.791c-0.017,0-0.031,0-0.048,0c6.703-5.226,15.051-7.859,24.09-7.859
	c22.046,0,39.983,17.861,39.983,39.647v31.566c0,8.583-7.42,15.835-16.202,15.835c-8.783,0-16.202-7.252-16.202-15.835V109.58
	C311.401,92.203,297.215,77.791,279.781,77.791z M263.84,57.236c2.311-10.748,12.042-18.792,23.427-18.792
	c10.476,0,19.54,6.493,22.713,16.08c-2.024-0.224-4.076-0.348-6.158-0.348c-15.68,0-29.856,6.446-39.983,16.784V57.236z
	 M263.84,109.15c0-8.362,7.151-15.621,15.941-15.621c7.145,0,13.206,4.836,15.225,11.335c-11.26,2.962-21.776,7.952-31.166,14.765
	V109.15z M248.161,57.236V70.96c-10.127-10.338-24.303-16.784-39.983-16.784c-2.082,0-4.134,0.124-6.158,0.348
	c3.175-9.586,12.237-16.08,22.713-16.08C236.119,38.444,245.848,46.489,248.161,57.236z M232.22,93.529
	c8.79,0,15.941,7.259,15.941,15.621v10.479c-9.39-6.813-19.906-11.802-31.166-14.765C219.012,98.366,225.074,93.529,232.22,93.529z
	 M200.599,109.58v31.566c0,8.583-7.42,15.835-16.202,15.835s-16.202-7.252-16.202-15.835V109.58
	c0-21.786,17.936-39.647,39.983-39.647c9.038,0,17.386,2.632,24.09,7.859c-0.017,0-0.031,0-0.048,0
	C214.784,77.791,200.599,92.203,200.599,109.58z M153.561,61.622c0-25.748,20.516-45.899,46.706-45.899
	c9.268,0,17.929,2.582,25.27,7.017c-0.349-0.009-0.7,0.023-1.052,0.023c-20.708,0-37.72,15.845-39.234,36.368
	c-16.146,7.319-28.195,22.092-31.69,39.815L153.561,61.622L153.561,61.622z M387.613,221.522l-77.808,197.511
	c-4.819,12.234-8.617,24.872-12.291,37.093c-1.246,4.149-2.494,8.298-3.781,12.436c-5.163,16.602-20.327,27.758-37.734,27.758
	s-32.57-11.154-37.735-27.758c-1.286-4.137-2.534-8.287-3.78-12.436c-3.673-12.222-7.471-24.859-12.291-37.093l-77.808-197.511
	c-7.418-18.83-7.184-39.533,0.659-58.296c5.884-14.075,15.428-25.708,27.469-33.754v11.673c0,17.377,14.303,31.515,31.882,31.515
	s31.882-14.138,31.882-31.515V120.96c12.903,4.006,24.53,11.279,34.015,21.346l5.706,6.056l5.706-6.056
	c9.485-10.068,21.113-17.34,34.015-21.346v20.185c0,17.377,14.303,31.515,31.882,31.515c17.579,0,31.882-14.138,31.882-31.515
	v-11.674c12.041,8.045,21.584,19.677,27.467,33.751C394.797,181.986,395.031,202.69,387.613,221.522z"/>
<g>
</g>
<g>
</g>
<g>
</g>
<g>
</g>
<g>
</g>
<g>
</g>
<g>
</g>
<g>
</g>
<g>
</g>
<g>
</g>
<g>
</g>
<g>
</g>
<g>
</g>
<g>
</g>
<g>
</g>
</svg>
